<svg width="192" height="24" viewBox="0 0 192 24" fill="none" xmlns="http://www.w3.org/2000/svg">
<path d="M111.738 3.908H119.086C120.597 3.908 121.755 4.326 122.562 5.162C123.369 5.998 123.772 7.11267 123.772 8.506C123.772 9.92867 123.347 11.0727 122.496 11.938C121.66 12.7887 120.523 13.214 119.086 13.214H113.828V19H111.738V3.908ZM118.976 11.388C119.797 11.388 120.45 11.1313 120.934 10.618C121.418 10.1047 121.66 9.408 121.66 8.528C121.66 7.63333 121.433 6.944 120.978 6.46C120.523 5.976 119.856 5.734 118.976 5.734H113.828V11.388H118.976ZM126.148 7.428H127.622L127.842 9.166H127.974C128.194 8.594 128.524 8.11733 128.964 7.736C129.404 7.35467 129.983 7.164 130.702 7.164C131.098 7.164 131.442 7.22267 131.736 7.34V9.21H130.922C130.1 9.21 129.418 9.452 128.876 9.936C128.348 10.4053 128.084 11.146 128.084 12.158V19H126.148V7.428ZM133.474 3.094H135.388V5.184H133.474V3.094ZM133.474 7.428H135.41V19H133.474V7.428ZM142.751 19.264C140.991 19.264 139.7 18.78 138.879 17.812C138.058 16.8293 137.647 15.2967 137.647 13.214C137.647 11.146 138.058 9.62067 138.879 8.638C139.715 7.65533 141.006 7.164 142.751 7.164C144.335 7.164 145.494 7.54533 146.227 8.308C146.96 9.07067 147.327 10.2073 147.327 11.718H145.347C145.347 10.6767 145.156 9.92867 144.775 9.474C144.408 9.00467 143.734 8.77 142.751 8.77C141.68 8.77 140.896 9.122 140.397 9.826C139.898 10.5153 139.649 11.6447 139.649 13.214V13.302C139.649 14.8567 139.891 15.9713 140.375 16.646C140.859 17.3207 141.651 17.658 142.751 17.658C143.719 17.658 144.408 17.416 144.819 16.932C145.244 16.4333 145.457 15.6927 145.457 14.71H147.327C147.327 16.03 146.953 17.1227 146.205 17.988C145.457 18.8387 144.306 19.264 142.751 19.264ZM154.257 19.264C152.394 19.264 151.008 18.7727 150.099 17.79C149.19 16.8073 148.735 15.282 148.735 13.214C148.735 11.146 149.19 9.62067 150.099 8.638C151.008 7.65533 152.394 7.164 154.257 7.164C155.929 7.164 157.176 7.61133 157.997 8.506C158.833 9.386 159.251 10.8087 159.251 12.774V13.742H150.737C150.81 15.0767 151.126 16.0667 151.683 16.712C152.255 17.3427 153.113 17.658 154.257 17.658C155.181 17.658 155.929 17.4453 156.501 17.02C157.073 16.5947 157.359 15.942 157.359 15.062H159.251C159.251 16.4113 158.782 17.4527 157.843 18.186C156.919 18.9047 155.724 19.264 154.257 19.264ZM157.227 12.136C157.227 9.892 156.237 8.77 154.257 8.77C153.157 8.77 152.328 9.034 151.771 9.562C151.228 10.09 150.898 10.948 150.781 12.136H157.227Z" fill="black"/>
<path d="M29.304 19.264C27.4707 19.264 25.9747 18.8973 24.816 18.164C23.6573 17.4307 23.078 16.2867 23.078 14.732L23.1 14.292H25.168C25.1387 14.4973 25.124 14.6513 25.124 14.754C25.124 15.6487 25.4907 16.3307 26.224 16.8C26.972 17.2547 27.962 17.482 29.194 17.482C30.5727 17.482 31.6287 17.2693 32.362 16.844C33.0953 16.404 33.462 15.7807 33.462 14.974C33.462 14.4313 33.2713 13.984 32.89 13.632C32.5087 13.2653 32.0247 12.9793 31.438 12.774C30.866 12.5687 30.0887 12.3413 29.106 12.092C27.8887 11.784 26.906 11.4907 26.158 11.212C25.41 10.9187 24.772 10.4933 24.244 9.936C23.716 9.364 23.452 8.616 23.452 7.692C23.452 6.372 24.002 5.36733 25.102 4.678C26.202 3.98867 27.61 3.644 29.326 3.644C31.042 3.644 32.4353 3.996 33.506 4.7C34.5767 5.38933 35.112 6.45267 35.112 7.89V8.154H33.066V7.824C33.066 7.076 32.7213 6.48933 32.032 6.064C31.3573 5.63867 30.4773 5.426 29.392 5.426C28.2333 5.426 27.302 5.602 26.598 5.954C25.9087 6.306 25.564 6.834 25.564 7.538C25.564 8.05133 25.7473 8.46933 26.114 8.792C26.4953 9.11467 26.9573 9.37867 27.5 9.584C28.0573 9.77467 28.8273 9.99467 29.81 10.244C31.0273 10.552 32.0173 10.8527 32.78 11.146C33.5573 11.4393 34.21 11.872 34.738 12.444C35.2807 13.0013 35.552 13.7347 35.552 14.644C35.552 16.2573 34.9873 17.4307 33.858 18.164C32.7433 18.8973 31.2253 19.264 29.304 19.264ZM42.7898 19.264C41.0152 19.264 39.6805 18.7727 38.7858 17.79C37.8912 16.7927 37.4438 15.2673 37.4438 13.214C37.4438 11.1607 37.8912 9.64267 38.7858 8.66C39.6805 7.66267 41.0152 7.164 42.7898 7.164C44.5645 7.164 45.8992 7.66267 46.7938 8.66C47.6885 9.64267 48.1358 11.1607 48.1358 13.214C48.1358 15.2673 47.6885 16.7927 46.7938 17.79C45.8992 18.7727 44.5645 19.264 42.7898 19.264ZM42.7898 17.658C43.9632 17.658 44.8138 17.3207 45.3418 16.646C45.8698 15.9567 46.1338 14.842 46.1338 13.302V13.126C46.1338 11.586 45.8698 10.4787 45.3418 9.804C44.8138 9.11467 43.9632 8.77 42.7898 8.77C41.6165 8.77 40.7658 9.11467 40.2378 9.804C39.7098 10.4787 39.4458 11.586 39.4458 13.126V13.302C39.4458 14.842 39.7098 15.9567 40.2378 16.646C40.7658 17.3207 41.6165 17.658 42.7898 17.658ZM50.3724 7.428H51.8464L52.0664 9.166H52.1984C52.4184 8.594 52.7484 8.11733 53.1884 7.736C53.6284 7.35467 54.2078 7.164 54.9264 7.164C55.3224 7.164 55.6671 7.22267 55.9604 7.34V9.21H55.1464C54.3251 9.21 53.6431 9.452 53.1004 9.936C52.5724 10.4053 52.3084 11.146 52.3084 12.158V19H50.3724V7.428ZM60.3166 19.242C59.5246 19.242 58.9453 19.0073 58.5786 18.538C58.2119 18.0687 58.0286 17.4893 58.0286 16.8V9.034H56.6206V7.428H58.0506L58.4686 4.216H59.9646V7.428H61.9226V9.034H59.9646V16.624C59.9646 17.3133 60.2873 17.658 60.9326 17.658H61.9226V18.934C61.7319 19.022 61.4826 19.0953 61.1746 19.154C60.8666 19.2127 60.5806 19.242 60.3166 19.242ZM70.2087 3.908H77.4907C78.752 3.908 79.764 4.24533 80.5267 4.92C81.304 5.59467 81.6927 6.48933 81.6927 7.604C81.6927 8.45467 81.458 9.188 80.9887 9.804C80.5194 10.42 79.918 10.8453 79.1847 11.08V11.168C80.0794 11.3733 80.7907 11.7987 81.3187 12.444C81.8467 13.0893 82.1107 13.94 82.1107 14.996C82.1107 16.3453 81.6854 17.35 80.8347 18.01C79.9987 18.67 78.884 19 77.4907 19H70.2087V3.908ZM77.0727 10.354C77.8207 10.354 78.422 10.1413 78.8767 9.716C79.3314 9.276 79.5587 8.71133 79.5587 8.022C79.5587 7.25933 79.3534 6.68733 78.9427 6.306C78.532 5.92467 77.9674 5.734 77.2487 5.734H72.2987V10.354H77.0727ZM77.4467 17.174C79.1334 17.174 79.9767 16.36 79.9767 14.732C79.9767 13.0307 79.082 12.18 77.2927 12.18H72.2987V17.174H77.4467ZM85.7185 23.004C85.0732 23.004 84.5599 22.9453 84.1785 22.828V21.574H84.9485C86.4445 21.574 87.4272 20.716 87.8965 19L83.4305 7.428H85.4765L87.6325 13.214C87.9405 14.0353 88.3585 15.2453 88.8865 16.844H88.9965C89.4219 15.348 89.7812 14.138 90.0745 13.214L91.9225 7.428H93.8585L90.0525 18.406C89.5392 19.8727 88.9525 21.002 88.2925 21.794C87.6472 22.6007 86.7892 23.004 85.7185 23.004Z" fill="#9B9B9B"/>
<g clip-path="url(#clip0_407_471)">
<path d="M3.64807 18.3734V5.5347L5.90435 7.79098C5.97793 7.86456 6.07296 7.90134 6.17106 7.90134C6.26916 7.90134 6.36419 7.86456 6.43777 7.79098C6.58492 7.64383 6.58492 7.40778 6.43777 7.26063L3.54077 4.36364C3.39976 4.22262 3.15144 4.22262 3.01042 4.36364L0.110362 7.26063C-0.0367873 7.40778 -0.0367873 7.64383 0.110362 7.79098C0.257511 7.93813 0.493562 7.93813 0.640711 7.79098L2.897 5.5347V18.3734C2.897 18.5819 3.0656 18.7505 3.27407 18.7505C3.47946 18.7474 3.64807 18.5788 3.64807 18.3734Z" fill="black"/>
<path d="M11.4592 18.6367C11.5328 18.7103 11.6279 18.7471 11.726 18.7471C11.8241 18.7471 11.9191 18.7103 11.9927 18.6367L14.8897 15.7397C15.0368 15.5926 15.0368 15.3565 14.8897 15.2094C14.7425 15.0622 14.5065 15.0622 14.3593 15.2094L12.103 17.4657V4.62692C12.103 4.41846 11.9344 4.24985 11.726 4.24985C11.5175 4.24985 11.3489 4.41846 11.3489 4.62692V17.4657L9.09567 15.2094C8.94852 15.0622 8.71247 15.0622 8.56532 15.2094C8.41817 15.3565 8.41817 15.5926 8.56532 15.7397L11.4592 18.6367Z" fill="black"/>
</g>
<path d="M174 8L182 16L190 8" stroke="black" stroke-width="3"/>
<defs>
<clipPath id="clip0_407_471">
<rect width="15" height="15" fill="white" transform="translate(0 4)"/>
</clipPath>
</defs>
</svg>
